<?xml version="1.0" encoding="UTF-8"?>
<svg xmlns="http://www.w3.org/2000/svg" version="1.1" viewBox="0 0 773.9 773.9">
  <defs>
    <style>
      .cls-1 {
        fill: #4d5d56;
      }

      .cls-2 {
        fill: #d9e4da;
      }

      .cls-3 {
        fill: #e75f5e;
      }
    </style>
  </defs>
  <!-- Generator: Adobe Illustrator 28.7.0, SVG Export Plug-In . SVG Version: 1.2.0 Build 136)  -->
  <g>
    <g id="Layer_1">
      <circle class="cls-2" cx="386.9" cy="386.9" r="381.5"/>
      <path class="cls-1" d="M157.8,560.5v-5.7l6.9-2.3c13.7-4.6,20.6-14.1,20.6-28.5V218.5c0-7.6-1.5-13.4-4.6-17.4-3.1-4-8.4-6.9-16-8.9l-7.4-1.7v-5.7l104.5-24.6,6.9,5.1-2.3,79.9v195.2c0,14.1,0,28.1.3,42,.2,13.9.3,27.7.3,41.4s1.5,13.8,4.6,18.6c3,4.8,8.2,8.3,15.4,10.6l7.4,1.7v5.7h-136.5Z"/>
      <path class="cls-1" d="M460.9,568c-25.9,0-49.4-5.6-70.5-16.8-21.1-11.2-37.9-27.6-50.2-49.1-12.4-21.5-18.6-47.9-18.6-79.1s6.8-57.2,20.3-79.1c13.5-21.9,31.6-38.6,54.2-50.2,22.6-11.6,47.5-17.4,74.5-17.4s40.7,3.6,56,10.9c15.2,7.2,26.8,16.6,34.8,28.3,8,11.6,12,23.7,12,36.2s-3.2,18.9-9.7,24.8c-6.5,5.9-14.8,8.9-25.1,8.9s-20-4-26.8-12-10.9-18.5-12-31.4c-.4-8.4-.2-15.5.6-21.4.8-5.9.8-11.9,0-18-1.5-6.5-3.9-10.8-7.1-12.9-3.2-2.1-7.7-3.1-13.4-3.1-23.2,0-41.2,10.1-54,30.3-12.8,20.2-19.1,52.3-19.1,96.5s7.1,67.9,21.4,88.2c14.3,20.4,36.2,30.5,65.9,30.5s32.4-3.2,43.4-9.7c11-6.5,21.7-16.2,32-29.1l5.7,4.6c-9.5,22.5-24.2,39.8-44,52-19.8,12.2-43.2,18.3-70.2,18.3h0Z"/>
      <path class="cls-3" d="M641.7,568c-10.3,0-19.1-3.6-26.3-10.8s-10.8-15.8-10.8-25.8,3.6-18.8,10.8-26.3c7.2-7.5,15.9-11.2,26.3-11.2s19.1,3.7,26.3,11.2c7.2,7.5,10.8,16.2,10.8,26.3s-3.6,18.7-10.8,25.8c-7.2,7.2-15.9,10.8-26.3,10.8Z"/>
    </g>
  </g>
</svg>