<?xml version="1.0" encoding="UTF-8"?>
<svg xmlns="http://www.w3.org/2000/svg" version="1.1" viewBox="0 0 773.86 773.86">
  <defs>
    <style>
      .cls-1 {
        fill: #4d5d56;
      }

      .cls-2 {
        fill: #d9e4da;
      }

      .cls-3 {
        fill: #ffb2a8;
      }
    </style>
  </defs>
  <!-- Generator: Adobe Illustrator 28.7.0, SVG Export Plug-In . SVG Version: 1.2.0 Build 136)  -->
  <g>
    <g id="Layer_1">
      <g id="Layer_1-2" data-name="Layer_1">
        <g>
          <circle class="cls-2" cx="386.93" cy="386.93" r="381.5"/>
          <g>
            <path class="cls-1" d="M157.77,560.51v-5.71l6.85-2.28c13.7-4.57,20.55-14.08,20.55-28.55V218.54c0-7.61-1.53-13.42-4.57-17.41-3.05-4-8.38-6.94-15.99-8.85l-7.42-1.71v-5.71l104.48-24.55,6.85,5.14-2.28,79.93v195.25c0,14.09.09,28.07.29,41.96.19,13.9.29,27.69.29,41.39,0,7.62,1.52,13.8,4.57,18.56,3.04,4.76,8.18,8.28,15.41,10.56l7.42,1.71v5.71h-136.45Z"/>
            <path class="cls-1" d="M460.92,567.96c-25.89,0-49.38-5.62-70.51-16.84-21.12-11.22-37.88-27.59-50.24-49.1-12.37-21.5-18.56-47.86-18.56-79.07s6.75-57.18,20.27-79.07c13.51-21.88,31.59-38.62,54.24-50.24,22.64-11.61,47.47-17.41,74.5-17.41,22.07,0,40.72,3.62,55.95,10.85,15.22,7.23,26.83,16.65,34.83,28.26,7.99,11.61,11.99,23.69,11.99,36.25,0,10.66-3.24,18.94-9.71,24.83-6.48,5.91-14.84,8.85-25.12,8.85-11.04,0-19.98-4-26.83-11.99-6.85-7.99-10.85-18.46-11.99-31.4-.38-8.37-.2-15.5.57-21.41.76-5.9.76-11.89,0-17.98-1.53-6.47-3.91-10.75-7.14-12.85-3.24-2.09-7.71-3.14-13.42-3.14-23.22,0-41.2,10.09-53.95,30.26-12.76,20.18-19.13,52.34-19.13,96.48,0,38.45,7.14,67.85,21.41,88.2,14.27,20.37,36.25,30.54,65.94,30.54,17.89,0,32.35-3.23,43.39-9.7,11.03-6.47,21.69-16.17,31.97-29.12l5.71,4.57c-9.52,22.46-24.17,39.78-43.96,51.95-19.79,12.18-43.2,18.27-70.22,18.27h.01Z"/>
            <path class="cls-3" d="M641.73,567.96c-10.34,0-19.11-3.59-26.29-10.77s-10.77-15.8-10.77-25.85,3.59-18.81,10.77-26.29c7.18-7.47,15.94-11.2,26.29-11.2s19.1,3.74,26.29,11.2c7.18,7.47,10.77,16.23,10.77,26.29s-3.59,18.68-10.77,25.85c-7.18,7.18-15.94,10.77-26.29,10.77Z"/>
          </g>
        </g>
      </g>
    </g>
  </g>
</svg>